<?xml version="1.0" encoding="UTF-8"?>
<svg id="Layer_2" data-name="Layer 2" xmlns="http://www.w3.org/2000/svg" viewBox="0 0 626.31 241.71">
  <defs>
    <style>
      .cls-1 {
        fill: none;
      }

      .cls-2 {
        font-family: RoundedMplus1c-Thin, 'RoundedMplus1c Thin';
        font-weight: 200;
      }

      .cls-3 {
        font-family: RoundedMplus1c-Regular, 'RoundedMplus1c Regular';
      }

      .cls-4 {
        fill: #fff;
      }

      .cls-5 {
        fill: #1fbda6;
      }

      .cls-6 {
        fill: #3b3b3b;
        font-size: 48.2px;
      }

      .cls-7 {
        fill: #616161;
      }
    </style>
  </defs>
  <g id="Layer_1-2" data-name="Layer 1">
    <text class="cls-6" transform="translate(36.85 225.37)"><tspan class="cls-3" x="0" y="0">MEDICAL &amp; BEAUTY</tspan><tspan class="cls-2" x="425.22" y="0"> </tspan><tspan class="cls-3" x="436.45" y="0">CLINIC</tspan></text>
    <g>
      <g>
        <g>
          <path class="cls-7" d="M127.01,2.43C125.46.81,123.53,0,121.24,0s-4.23.81-5.78,2.43c-1.56,1.62-2.34,3.52-2.34,5.68v131.79c0,2.17.78,4.06,2.34,5.68,1.55,1.62,3.47,2.43,5.78,2.43s4.22-.81,5.77-2.43c1.56-1.62,2.34-3.51,2.34-5.68V8.11c0-2.16-.78-4.06-2.34-5.68ZM34.86,0c-2.3,0-4.23.81-5.78,2.43-1.56,1.62-2.33,3.52-2.33,5.68v131.79c0,2.17.77,4.06,2.33,5.68,1.55,1.62,3.48,2.43,5.78,2.43s4.22-.81,5.78-2.43c1.55-1.62,2.33-3.51,2.33-5.68V8.11c0-2.16-.78-4.06-2.33-5.68C39.08.81,37.15,0,34.86,0Z"/>
          <path class="cls-7" d="M270.47,139.9L224.44,8.51c-.95-2.56-2.53-4.62-4.76-6.18C217.45.78,214.98,0,212.27,0s-5.17.78-7.4,2.33c-2.23,1.56-3.82,3.62-4.76,6.18l-46.23,131.6c-.68,1.89-.41,3.68.81,5.37,1.22,1.69,2.84,2.53,4.87,2.53,2.56,0,4.83-.71,6.79-2.12,1.96-1.42,3.34-3.35,4.16-5.78l11.15-33.66,5.27-16.22,24.74-75.43c0-.13.13-.2.4-.2.13,0,.2.07.2.2l23.25,70.89.18.55,6.75,20.17s.04.03.04.04l.65,2.02,10.09,31.23c.81,2.43,2.27,4.43,4.36,5.98,2.1,1.56,4.49,2.33,7.2,2.33,2.03,0,3.65-.84,4.87-2.53,1.21-1.69,1.48-3.55.81-5.58Z"/>
          <path class="cls-7" d="M300.8,69.8l-4.16-12.52h0s-.09-.3-.09-.3l-2.76-8.32h-.03s2.86,8.63,2.86,8.63l4.15,12.52,1.55,4.67h.03s-1.55-4.68-1.55-4.68ZM370.47,34.33l-2.99,8.5-3.83,10.9-5.39,15.34h.01l5.39-15.34,3.83-10.9,2.99-8.5h-.01Z"/>
          <path class="cls-7" d="M379.76,7.91l-9.28,26.42h-.01l-2.99,8.5-3.83,10.9-5.39,15.34h.01s-24.74,70.43-24.74,70.43c-.95,2.57-2.54,4.63-4.77,6.18-2.23,1.56-4.7,2.33-7.4,2.33s-5.17-.77-7.4-2.33c-2.23-1.55-3.82-3.61-4.76-6.18l-21.85-62.36h0s-4.48-12.8-4.48-12.8l-19.7-56.23c-.68-2.03-.44-3.89.71-5.58,1.15-1.69,2.8-2.53,4.97-2.53,2.56,0,4.93.78,7.09,2.33,2.16,1.56,3.65,3.55,4.46,5.98l13.39,40.35h-.03s2.86,8.63,2.86,8.63l4.15,12.52,1.55,4.67h.03s19.01,57.31,19.01,57.31c0,.14.07.21.2.21.27,0,.41-.07.41-.21l25.37-76.74.28-.86,3.72-11.24,11.59-35.04c.81-2.44,2.23-4.36,4.26-5.78,2.02-1.42,4.32-2.13,6.89-2.13,2.03,0,3.65.84,4.87,2.53,1.21,1.69,1.48,3.48.81,5.38Z"/>
          <path class="cls-7" d="M482.35,134.43h-61.64c-1.21,0-1.82-.54-1.82-1.62V15.21c0-1.09.61-1.63,1.82-1.63h61.64c1.9,0,3.52-.71,4.87-2.13,1.35-1.42,2.03-3,2.03-4.76s-.68-3.31-2.03-4.66S484.25,0,482.35,0h-68.12c-3.11,0-5.82,1.15-8.11,3.44s-3.45,5.01-3.45,8.11v124.91c0,3.11,1.15,5.81,3.45,8.11,2.29,2.3,5,3.44,8.11,3.44h68.12c1.9,0,3.52-.67,4.87-2.02,1.35-1.35,2.03-2.91,2.03-4.67s-.68-3.34-2.03-4.76c-1.35-1.42-2.97-2.13-4.87-2.13Z"/>
          <path class="cls-7" d="M535.17,145.79c-1.56,1.49-3.42,2.23-5.58,2.23s-4.02-.74-5.58-2.23c-1.56-1.49-2.33-3.38-2.33-5.68V8.31c0-2.3.81-4.26,2.43-5.88S527.7,0,530,0c5.54,0,9.73,2.43,12.57,7.3l67.32,114.16c0,.14.13.2.41.2.13,0,.2-.07.2-.2V7.91c0-2.3.78-4.19,2.33-5.68,1.55-1.49,3.41-2.23,5.58-2.23s4.02.75,5.58,2.23c1.55,1.49,2.33,3.38,2.33,5.68v131.8c0,2.3-.81,4.26-2.43,5.88s-3.58,2.43-5.88,2.43c-5.54,0-9.73-2.43-12.57-7.3l-67.32-114.15c0-.13-.14-.2-.41-.2-.14,0-.2.07-.2.2v113.55c0,2.3-.78,4.19-2.33,5.68Z"/>
        </g>
        <line class="cls-1" x1="243.14" y1="108.47" x2="242.45" y2="106.41"/>
      </g>
      <path class="cls-5" d="M280.2,65.85l4.52,12.89c-4.07,2.51-8.07,5.17-12.03,7.94-3.31,2.33-6.5,4.7-9.79,7.23l-2.49,1.89-2.61,1.93c-.56.41-1.12.81-1.68,1.21-1.19.85-2.39,1.69-3.61,2.5-3.13,2.09-6.34,4.12-9.7,5.99h-.01c-4.34,2.43-8.92,4.6-13.8,6.33-4.33,1.51-8.91,2.59-13.6,3.04-4.68.46-9.43.25-13.95-.49-7.6-1.24-14.47-3.78-20.88-6.58-1.26-.55-2.51-1.11-3.74-1.67-3.42-1.58-6.74-3.2-9.99-4.84-3.89-1.95-7.68-3.92-11.44-5.86-6.9-3.56-13.69-6.96-20.36-10.2l-1.25-.6-.63-.3-.54-.25c-.83-.37-1.73-.8-2.5-1.12-.26-.11-.52-.21-.77-.32-.52-.21-1.04-.42-1.55-.63-.8-.3-1.61-.6-2.41-.9-3.24-1.13-6.52-2.05-9.81-2.78-.82-.18-1.64-.35-2.46-.5-12.37-2.36-24.69-2.05-35.95-.57-12.04,1.6-22.98,4.43-32.5,7.51-.57.19-1.14.38-1.7.57-5.98,2.01-11.41,4.07-16.22,6.04-2.26.93-4.37,1.84-6.35,2.72-6.6,2.97-11.73,5.48-15.17,7.31-3.23,1.7-5.02,2.73-5.23,2.85.19-.16,1.82-1.43,4.83-3.51,3.23-2.2,7.99-5.42,14.35-9.04,2.32-1.32,4.84-2.72,7.57-4.15,4.74-2.5,10.11-5.12,16.12-7.63.03-.01.07-.03.1-.04,9.43-3.95,20.39-7.83,32.91-10.35,11.28-2.25,23.92-3.45,37.24-1.84,1.45.17,2.92.38,4.39.63,3.71.62,7.46,1.48,11.19,2.61.22.07.43.14.65.21.71.23,1.43.46,2.14.69.96.34,1.91.69,2.87,1.03.95.36,1.74.7,2.63,1.05l.74.31.65.28,1.3.56c6.96,2.98,13.97,6.25,21.03,9.58,3.42,1.61,6.84,3.25,10.27,4.86,3.67,1.73,7.34,3.43,11.03,5.04.85.36,1.69.72,2.54,1.07,6.31,2.62,12.65,4.8,18.91,5.73,3.55.52,7.08.62,10.58.23,3.51-.39,7-1.27,10.49-2.49,4.7-1.68,9.33-4.01,13.87-6.72,2.19-1.31,4.36-2.7,6.5-4.16,1.65-1.11,3.28-2.26,4.91-3.43l1.61-1.18.8-.58,2.47-1.86c3.3-2.52,6.78-5.08,10.25-7.49,4.95-3.46,10.05-6.72,15.26-9.75Z"/>
      <polygon class="cls-7" points="287.35 77.13 287.35 77.14 287.34 77.14 282.86 64.34 282.87 64.34 287.35 77.13"/>
      <path class="cls-7" d="M300.8,69.8s-.02.01-.03.01l-4.15-12.52s0-.01.02-.01l4.16,12.52Z"/>
      <path class="cls-5" d="M348.09,43.21l-4.09,12.35c-2.73.45-5.47.99-8.21,1.61-7.27,1.69-14.55,3.88-21.71,6.72-3.55,1.41-7.08,2.95-10.58,4.6l-4.13-12.44c11.05-4.87,22.47-8.54,33.93-10.75,3.98-.78,7.97-1.37,11.93-1.8.96-.1,1.91-.2,2.86-.29Z"/>
      <path class="cls-7" d="M347.33,55.05l.29-.86-.28.86h-.01Z"/>
      <path class="cls-7" d="M351.33,42.95h.01l-3.72,11.24,3.31-10.04.4-1.2Z"/>
      <polygon class="cls-7" points="367.49 42.83 363.66 53.73 363.65 53.73 367.48 42.83 367.49 42.83"/>
      <path class="cls-5" d="M489.18,100.79c-.37-.25-2.03-1.41-4.84-3.37-3.21-2.2-7.94-5.4-14.07-9.27-6.13-3.86-13.71-8.3-22.62-12.9-4.47-2.27-9.26-4.6-14.42-6.77-4.53-1.94-9.3-3.84-14.34-5.56-.68-.23-1.37-.46-2.06-.69-4.53-1.51-9.26-2.9-14.16-4.09-7.62-1.86-15.66-3.26-24.02-3.95-3.87-.33-7.81-.5-11.8-.5l3.75-10.68c3.1.21,6.16.52,9.17.93,7.33.97,14.35,2.5,21,4.34.64.18,1.27.36,1.9.54,5.7,1.67,11.11,3.6,16.22,5.68.24.09.48.18.71.28,5.88,2.43,11.39,5.03,16.49,7.72,5.11,2.69,9.8,5.48,14.15,8.19,4.35,2.7,8.32,5.38,11.91,7.94,3.58,2.6,6.81,5.03,9.69,7.29,5.78,4.48,10.04,8.33,12.99,10.88,2.53,2.32,4.03,3.68,4.35,3.99Z"/>
      <polygon class="cls-4" points="370.48 34.33 367.49 42.83 363.66 53.73 358.27 69.07 358.26 69.07 363.65 53.73 367.48 42.83 370.47 34.33 370.48 34.33"/>
      <polygon class="cls-4" points="302.35 74.47 302.32 74.48 300.77 69.81 296.62 57.29 293.76 48.67 293.79 48.66 296.55 56.98 296.64 57.27 296.64 57.28 300.8 69.8 302.35 74.47"/>
    </g>
  </g>
</svg>